<?xml version="1.0" encoding="utf-8" standalone="no"?>
<!DOCTYPE svg PUBLIC "-//W3C//DTD SVG 1.1//EN"
  "http://www.w3.org/Graphics/SVG/1.1/DTD/svg11.dtd">
<svg xmlns:xlink="http://www.w3.org/1999/xlink" width="403.2pt" height="604.8pt" viewBox="0 0 403.2 604.8" xmlns="http://www.w3.org/2000/svg" version="1.1">
 <metadata>
  <rdf:RDF xmlns:dc="http://purl.org/dc/elements/1.1/" xmlns:cc="http://creativecommons.org/ns#" xmlns:rdf="http://www.w3.org/1999/02/22-rdf-syntax-ns#">
   <cc:Work>
    <dc:type rdf:resource="http://purl.org/dc/dcmitype/StillImage"/>
    <dc:date>2026-09-19T17:06:38.199573</dc:date>
    <dc:format>image/svg+xml</dc:format>
    <dc:creator>
     <cc:Agent>
      <dc:title>Matplotlib v3.10.9, https://matplotlib.org/</dc:title>
     </cc:Agent>
    </dc:creator>
   </cc:Work>
  </rdf:RDF>
 </metadata>
 <defs>
  <style type="text/css">*{stroke-linejoin: round; stroke-linecap: butt}</style>
 </defs>
 <g id="figure_1">
  <g id="patch_1">
   <path d="M 0 604.8
L 403.2 604.8
L 403.2 0
L 0 0
z
" style="fill: #f7f5ef"/>
  </g>
  <g id="axes_1">
   <g id="patch_2">
    <path d="M 72.576 266.336
L 379.008 266.336
L 379.008 102.816
L 72.576 102.816
z
" style="fill: #f7f5ef"/>
   </g>
   <g id="matplotlib.axis_1">
    <g id="xtick_1">
     <g id="line2d_1">
      <defs>
       <path id="m3e79e34af6" d="M 0 0
L 0 3.5
" style="stroke: #60757b; stroke-width: 0.8"/>
      </defs>
      <g>
       <use xlink:href="#m3e79e34af6" x="109.070822" y="266.336" style="fill: #60757b; stroke: #60757b; stroke-width: 0.8"/>
      </g>
     </g>
     <g id="text_1">
      <!-- 0 -->
      <g style="fill: #60757b" transform="translate(104.622072 284.7885) scale(0.16 -0.16)">
       <defs>
        <path id="ArialUnicodeMS-30" d="M 1778 4603
Q 3272 4603 3272 2259
Q 3272 1075 2886 498
Q 2500 -78 1778 -78
Q 288 -78 288 2259
Q 288 3444 673 4023
Q 1059 4603 1778 4603
z
M 1778 384
Q 2231 384 2462 823
Q 2694 1263 2694 2259
Q 2694 2953 2592 3351
Q 2491 3750 2286 3945
Q 2081 4141 1772 4141
Q 1319 4141 1091 3694
Q 863 3247 863 2259
Q 863 1575 966 1175
Q 1069 775 1272 579
Q 1475 384 1778 384
z
" transform="scale(0.015625)"/>
       </defs>
       <use xlink:href="#ArialUnicodeMS-30"/>
      </g>
     </g>
    </g>
    <g id="xtick_2">
     <g id="line2d_2">
      <g>
       <use xlink:href="#m3e79e34af6" x="186.884941" y="266.336" style="fill: #60757b; stroke: #60757b; stroke-width: 0.8"/>
      </g>
     </g>
     <g id="text_2">
      <!-- 0.5 -->
      <g style="fill: #60757b" transform="translate(175.764941 284.7885) scale(0.16 -0.16)">
       <defs>
        <path id="ArialUnicodeMS-2e" d="M 1209 0
L 569 0
L 569 641
L 1209 641
L 1209 0
z
" transform="scale(0.015625)"/>
        <path id="ArialUnicodeMS-35" d="M 1013 2753
Q 1431 3041 1881 3041
Q 2453 3041 2878 2636
Q 3303 2231 3303 1556
Q 3303 875 2872 398
Q 2441 -78 1741 -78
Q 1169 -78 750 245
Q 331 569 269 1203
L 856 1247
Q 928 813 1162 598
Q 1397 384 1741 384
Q 2169 384 2434 707
Q 2700 1031 2700 1503
Q 2700 1984 2428 2262
Q 2156 2541 1728 2541
Q 1188 2541 897 2100
L 366 2163
L 813 4519
L 3084 4519
L 3084 3975
L 1259 3975
L 1013 2753
z
" transform="scale(0.015625)"/>
       </defs>
       <use xlink:href="#ArialUnicodeMS-30"/>
       <use xlink:href="#ArialUnicodeMS-2e" transform="translate(55.615234 0)"/>
       <use xlink:href="#ArialUnicodeMS-35" transform="translate(83.398438 0)"/>
      </g>
     </g>
    </g>
    <g id="xtick_3">
     <g id="line2d_3">
      <g>
       <use xlink:href="#m3e79e34af6" x="264.699059" y="266.336" style="fill: #60757b; stroke: #60757b; stroke-width: 0.8"/>
      </g>
     </g>
     <g id="text_3">
      <!-- 0.75 -->
      <g style="fill: #60757b" transform="translate(249.130309 284.7885) scale(0.16 -0.16)">
       <defs>
        <path id="ArialUnicodeMS-37" d="M 3272 4084
Q 2597 3344 2103 2253
Q 1609 1163 1522 0
L 947 0
Q 969 934 1408 2051
Q 1847 3169 2547 3975
L 306 3975
L 306 4519
L 3272 4519
L 3272 4084
z
" transform="scale(0.015625)"/>
       </defs>
       <use xlink:href="#ArialUnicodeMS-30"/>
       <use xlink:href="#ArialUnicodeMS-2e" transform="translate(55.615234 0)"/>
       <use xlink:href="#ArialUnicodeMS-37" transform="translate(83.398438 0)"/>
       <use xlink:href="#ArialUnicodeMS-35" transform="translate(139.013672 0)"/>
      </g>
     </g>
    </g>
    <g id="xtick_4">
     <g id="line2d_4">
      <g>
       <use xlink:href="#m3e79e34af6" x="342.513178" y="266.336" style="fill: #60757b; stroke: #60757b; stroke-width: 0.8"/>
      </g>
     </g>
     <g id="text_4">
      <!-- 0.9 -->
      <g style="fill: #60757b" transform="translate(331.393178 284.7885) scale(0.16 -0.16)">
       <defs>
        <path id="ArialUnicodeMS-39" d="M 2713 2156
Q 2547 1888 2258 1722
Q 1969 1556 1631 1556
Q 1066 1556 670 1970
Q 275 2384 275 3053
Q 275 3734 678 4168
Q 1081 4603 1716 4603
Q 2353 4603 2818 4106
Q 3284 3609 3284 2388
Q 3284 1147 2859 534
Q 2434 -78 1644 -78
Q 1128 -78 781 205
Q 434 488 359 1063
L 897 1106
Q 1025 384 1656 384
Q 2175 384 2450 857
Q 2725 1331 2725 2156
L 2713 2156
z
M 1766 2047
Q 2178 2047 2420 2339
Q 2663 2631 2663 3078
Q 2663 3531 2414 3836
Q 2166 4141 1778 4141
Q 1388 4141 1119 3817
Q 850 3494 850 3034
Q 850 2600 1114 2323
Q 1378 2047 1766 2047
z
" transform="scale(0.015625)"/>
       </defs>
       <use xlink:href="#ArialUnicodeMS-30"/>
       <use xlink:href="#ArialUnicodeMS-2e" transform="translate(55.615234 0)"/>
       <use xlink:href="#ArialUnicodeMS-39" transform="translate(83.398438 0)"/>
      </g>
     </g>
    </g>
   </g>
   <g id="matplotlib.axis_2">
    <g id="ytick_1">
     <g id="line2d_5">
      <path d="M 72.576 238.231
L 379.008 238.231
" clip-path="url(#p0dae288772)" style="fill: none; stroke: #d5dfda; stroke-width: 0.8; stroke-linecap: square"/>
     </g>
     <g id="line2d_6">
      <defs>
       <path id="m8a0102f0a8" d="M 0 0
L -3.5 0
" style="stroke: #60757b; stroke-width: 0.8"/>
      </defs>
      <g>
       <use xlink:href="#m8a0102f0a8" x="72.576" y="238.231" style="fill: #60757b; stroke: #60757b; stroke-width: 0.8"/>
      </g>
     </g>
     <g id="text_5">
      <!-- -40 -->
      <g style="fill: #60757b" transform="translate(41.008344 244.315141) scale(0.17 -0.17)">
       <defs>
        <path id="ArialUnicodeMS-2d" d="M 1925 1375
L 206 1375
L 206 1941
L 1925 1941
L 1925 1375
z
" transform="scale(0.015625)"/>
        <path id="ArialUnicodeMS-34" d="M 3263 1094
L 2644 1094
L 2644 0
L 2081 0
L 2081 1094
L 97 1094
L 97 1613
L 2181 4581
L 2644 4581
L 2644 1613
L 3263 1613
L 3263 1094
z
M 2081 1613
L 2081 3681
L 2069 3681
L 647 1613
L 2081 1613
z
" transform="scale(0.015625)"/>
       </defs>
       <use xlink:href="#ArialUnicodeMS-2d"/>
       <use xlink:href="#ArialUnicodeMS-34" transform="translate(33.300781 0)"/>
       <use xlink:href="#ArialUnicodeMS-30" transform="translate(88.916016 0)"/>
      </g>
     </g>
    </g>
    <g id="ytick_2">
     <g id="line2d_7">
      <path d="M 72.576 187.131
L 379.008 187.131
" clip-path="url(#p0dae288772)" style="fill: none; stroke: #d5dfda; stroke-width: 0.8; stroke-linecap: square"/>
     </g>
     <g id="line2d_8">
      <g>
       <use xlink:href="#m8a0102f0a8" x="72.576" y="187.131" style="fill: #60757b; stroke: #60757b; stroke-width: 0.8"/>
      </g>
     </g>
     <g id="text_6">
      <!-- -20 -->
      <g style="fill: #60757b" transform="translate(41.008344 193.215141) scale(0.17 -0.17)">
       <defs>
        <path id="ArialUnicodeMS-32" d="M 3231 0
L 197 0
Q 197 388 467 784
Q 738 1181 1478 1778
Q 1931 2141 2287 2539
Q 2644 2938 2644 3341
Q 2644 3688 2398 3914
Q 2153 4141 1778 4141
Q 1400 4141 1144 3908
Q 888 3675 884 3213
L 306 3278
Q 359 3922 764 4262
Q 1169 4603 1791 4603
Q 2466 4603 2842 4229
Q 3219 3856 3219 3328
Q 3219 2888 2901 2436
Q 2584 1984 1638 1228
Q 1141 831 978 544
L 3231 544
L 3231 0
z
" transform="scale(0.015625)"/>
       </defs>
       <use xlink:href="#ArialUnicodeMS-2d"/>
       <use xlink:href="#ArialUnicodeMS-32" transform="translate(33.300781 0)"/>
       <use xlink:href="#ArialUnicodeMS-30" transform="translate(88.916016 0)"/>
      </g>
     </g>
    </g>
    <g id="ytick_3">
     <g id="line2d_9">
      <path d="M 72.576 136.031
L 379.008 136.031
" clip-path="url(#p0dae288772)" style="fill: none; stroke: #d5dfda; stroke-width: 0.8; stroke-linecap: square"/>
     </g>
     <g id="line2d_10">
      <g>
       <use xlink:href="#m8a0102f0a8" x="72.576" y="136.031" style="fill: #60757b; stroke: #60757b; stroke-width: 0.8"/>
      </g>
     </g>
     <g id="text_7">
      <!-- 0 -->
      <g style="fill: #60757b" transform="translate(56.122406 142.115141) scale(0.17 -0.17)">
       <use xlink:href="#ArialUnicodeMS-30"/>
      </g>
     </g>
    </g>
   </g>
   <g id="line2d_11">
    <path d="M 72.576 136.031
L 379.008 136.031
" clip-path="url(#p0dae288772)" style="fill: none; stroke: #60757b; stroke-linecap: square"/>
   </g>
   <g id="patch_3">
    <path d="M 72.576 266.336
L 379.008 266.336
" style="fill: none; stroke: #d5dfda; stroke-width: 0.8; stroke-linejoin: miter; stroke-linecap: square"/>
   </g>
   <g id="patch_4">
    <path d="M 86.504727 136.031
L 131.636916 136.031
L 131.636916 243.852
L 86.504727 243.852
z
" clip-path="url(#p0dae288772)" style="fill: #466ba3"/>
   </g>
   <g id="patch_5">
    <path d="M 164.318846 136.031
L 209.451035 136.031
L 209.451035 165.4135
L 164.318846 165.4135
z
" clip-path="url(#p0dae288772)" style="fill: #177b76"/>
   </g>
   <g id="patch_6">
    <path d="M 242.132965 136.031
L 287.265154 136.031
L 287.265154 143.4405
L 242.132965 143.4405
z
" clip-path="url(#p0dae288772)" style="fill: #b66b3d"/>
   </g>
   <g id="patch_7">
    <path d="M 319.947084 136.031
L 365.079273 136.031
L 365.079273 128.877
L 319.947084 128.877
z
" clip-path="url(#p0dae288772)" style="fill: #9d543f"/>
   </g>
   <g id="text_8">
    <!-- -42.2 -->
    <g style="fill: #233d43" transform="translate(90.838322 259.137) scale(0.16 -0.16)">
     <use xlink:href="#ArialUnicodeMS-2d"/>
     <use xlink:href="#ArialUnicodeMS-34" transform="translate(33.300781 0)"/>
     <use xlink:href="#ArialUnicodeMS-32" transform="translate(88.916016 0)"/>
     <use xlink:href="#ArialUnicodeMS-2e" transform="translate(144.53125 0)"/>
     <use xlink:href="#ArialUnicodeMS-32" transform="translate(172.314453 0)"/>
    </g>
   </g>
   <g id="text_9">
    <!-- -11.5 -->
    <g style="fill: #233d43" transform="translate(168.652441 180.6985) scale(0.16 -0.16)">
     <defs>
      <path id="ArialUnicodeMS-31" d="M 2400 0
L 1838 0
L 1838 3584
Q 1416 3184 709 2906
L 709 3450
Q 1681 3916 2034 4603
L 2400 4603
L 2400 0
z
" transform="scale(0.015625)"/>
     </defs>
     <use xlink:href="#ArialUnicodeMS-2d"/>
     <use xlink:href="#ArialUnicodeMS-31" transform="translate(33.300781 0)"/>
     <use xlink:href="#ArialUnicodeMS-31" transform="translate(88.916016 0)"/>
     <use xlink:href="#ArialUnicodeMS-2e" transform="translate(144.53125 0)"/>
     <use xlink:href="#ArialUnicodeMS-35" transform="translate(172.314453 0)"/>
    </g>
   </g>
   <g id="text_10">
    <!-- -2.9 -->
    <g style="fill: #233d43" transform="translate(250.915309 158.7255) scale(0.16 -0.16)">
     <use xlink:href="#ArialUnicodeMS-2d"/>
     <use xlink:href="#ArialUnicodeMS-32" transform="translate(33.300781 0)"/>
     <use xlink:href="#ArialUnicodeMS-2e" transform="translate(88.916016 0)"/>
     <use xlink:href="#ArialUnicodeMS-39" transform="translate(116.699219 0)"/>
    </g>
   </g>
   <g id="text_11">
    <!-- 2.8 -->
    <g style="fill: #233d43" transform="translate(331.393178 122.368) scale(0.16 -0.16)">
     <defs>
      <path id="ArialUnicodeMS-38" d="M 2425 2478
Q 3284 2203 3284 1306
Q 3284 716 2862 319
Q 2441 -78 1778 -78
Q 1109 -78 689 322
Q 269 722 269 1325
Q 269 1759 505 2084
Q 741 2409 1141 2478
L 1141 2491
Q 453 2703 453 3419
Q 453 3925 815 4264
Q 1178 4603 1766 4603
Q 2363 4603 2730 4253
Q 3097 3903 3097 3406
Q 3097 2731 2425 2491
L 2425 2478
z
M 1778 2700
Q 2094 2700 2308 2901
Q 2522 3103 2522 3406
Q 2522 3716 2305 3928
Q 2088 4141 1772 4141
Q 1450 4141 1240 3931
Q 1031 3722 1031 3438
Q 1031 3097 1247 2898
Q 1463 2700 1778 2700
z
M 1778 384
Q 2175 384 2440 640
Q 2706 897 2706 1306
Q 2706 1716 2432 1978
Q 2159 2241 1766 2241
Q 1356 2241 1100 1970
Q 844 1700 844 1319
Q 844 922 1108 653
Q 1372 384 1778 384
z
" transform="scale(0.015625)"/>
     </defs>
     <use xlink:href="#ArialUnicodeMS-32"/>
     <use xlink:href="#ArialUnicodeMS-2e" transform="translate(55.615234 0)"/>
     <use xlink:href="#ArialUnicodeMS-38" transform="translate(83.398438 0)"/>
    </g>
   </g>
   <g id="text_12">
    <!-- 认知职业工资变化（%） -->
    <g style="fill: #233d43" transform="translate(72.576 85.816) scale(0.18 -0.18)">
     <defs>
      <path id="ArialUnicodeMS-8ba4" d="M 6131 -31
L 5734 -397
Q 4778 425 4122 2125
Q 3663 438 2400 -397
L 2034 -13
Q 2647 366 3090 980
Q 3534 1594 3700 2439
Q 3866 3284 3853 5288
L 4341 5288
Q 4334 4584 4313 4119
L 4263 3150
Q 4263 3069 4584 2212
Q 4906 1356 5306 825
Q 5706 294 6131 -31
z
M 2253 4366
L 1844 4063
Q 1419 4769 941 5025
L 1319 5288
Q 1922 4947 2253 4366
z
M 2869 928
L 1484 97
L 1241 569
Q 1313 581 1313 744
L 1313 3109
L 459 3109
L 459 3578
L 1772 3578
L 1772 872
L 2869 1416
L 2869 928
z
" transform="scale(0.015625)"/>
      <path id="ArialUnicodeMS-77e5" d="M 3803 594
L 3475 225
Q 2947 866 2322 1178
Q 1841 181 744 -469
L 441 -38
Q 1378 603 1693 1101
Q 2009 1600 2075 2247
L 697 2247
L 697 2731
L 2119 2731
L 2144 3891
L 1644 3891
Q 1384 3269 978 2803
L 538 3066
Q 1347 3944 1509 5363
L 1984 5253
Q 1984 5056 1806 4359
L 3603 4359
L 3603 3891
L 2625 3891
Q 2625 3144 2584 2731
L 3688 2731
L 3688 2247
L 2566 2247
Q 2491 1741 2463 1650
Q 3122 1341 3803 594
z
M 5831 72
L 5325 72
L 5325 556
L 4319 556
L 4319 72
L 3834 72
L 3834 4728
L 5831 4728
L 5831 72
z
M 5325 1025
L 5325 4263
L 4319 4263
L 4319 1025
L 5325 1025
z
" transform="scale(0.015625)"/>
      <path id="ArialUnicodeMS-804c" d="M 2981 1234
L 2484 1106
L 2484 -447
L 1997 -447
L 1997 959
L 513 563
L 197 1038
Q 619 1094 744 1125
L 744 4538
L 384 4538
L 384 5006
L 2797 5006
L 2797 4538
L 2484 4538
L 2484 1588
Q 2581 1606 2981 1716
L 2981 1234
z
M 1997 3866
L 1997 4538
L 1228 4538
L 1228 3866
L 1997 3866
z
M 1997 2753
L 1997 3397
L 1228 3397
L 1228 2753
L 1997 2753
z
M 1997 1453
L 1997 2284
L 1228 2284
L 1228 1259
L 1997 1453
z
M 5581 1941
L 3194 1941
L 3194 4884
L 5581 4884
L 5581 1941
z
M 5094 2406
L 5094 4416
L 3681 4416
L 3681 2406
L 5094 2406
z
M 6113 -44
L 5716 -341
Q 5191 759 4434 1288
L 4794 1575
Q 5353 1244 6113 -44
z
M 4219 1319
Q 4059 878 3690 403
Q 3322 -72 2981 -281
L 2619 72
Q 2875 191 3083 409
Q 3291 628 3484 941
L 3872 1575
L 4219 1319
z
" transform="scale(0.015625)"/>
      <path id="ArialUnicodeMS-4e1a" d="M 5875 -78
L 428 -78
L 428 391
L 2297 391
L 2297 5113
L 2797 5113
L 2797 391
L 3541 391
L 3541 5113
L 4019 5113
L 4019 391
L 5875 391
L 5875 -78
z
M 1919 1253
L 1434 1044
Q 1391 2156 788 3525
L 1203 3725
Q 1794 2416 1919 1253
z
M 5503 3553
Q 5294 1925 4678 966
L 4269 1216
Q 4934 2153 5063 3713
L 5503 3553
z
" transform="scale(0.015625)"/>
      <path id="ArialUnicodeMS-5de5" d="M 5819 347
L 609 347
L 609 813
L 2938 813
L 2938 3988
L 947 3988
L 947 4453
L 5472 4453
L 5472 3988
L 3481 3988
L 3481 813
L 5819 813
L 5819 347
z
" transform="scale(0.015625)"/>
      <path id="ArialUnicodeMS-8d44" d="M 5522 4863
Q 5541 4597 5477 4328
Q 5413 4059 5131 3622
L 4697 3859
Q 4913 4106 5013 4397
L 3144 4397
Q 2878 3913 2203 3444
L 1875 3822
Q 2672 4297 3003 5306
L 3431 5153
Q 3403 5059 3322 4863
L 5522 4863
z
M 1766 4550
L 1409 4172
Q 1103 4628 594 4941
L 891 5234
Q 1459 4978 1766 4550
z
M 6009 2778
L 5678 2369
Q 4472 2688 3788 3481
Q 3591 3172 3142 2912
Q 2694 2653 2222 2578
L 2222 2572
L 4813 2572
L 4813 575
L 4325 575
L 4325 2106
L 2119 2106
L 2119 575
L 1631 575
L 1631 2572
L 1913 2572
L 1716 2847
Q 2591 3081 3020 3382
Q 3450 3684 3641 4250
L 4091 4147
L 4006 3897
Q 4269 3525 4686 3267
Q 5103 3009 6009 2778
z
M 1806 3688
Q 1628 3134 831 2369
L 453 2713
Q 1106 3253 1453 3922
L 1806 3688
z
M 3450 1906
Q 3453 572 2761 120
Q 2069 -331 819 -384
L 594 84
Q 1419 134 1742 186
Q 2066 238 2409 461
Q 2753 684 2848 979
Q 2944 1275 2988 1906
L 3450 1906
z
M 5503 0
L 5259 -447
Q 4506 47 3272 306
L 3494 722
Q 4728 478 5503 0
z
" transform="scale(0.015625)"/>
      <path id="ArialUnicodeMS-53d8" d="M 5813 4050
L 3938 4050
L 3938 2350
L 3469 2350
L 3481 4050
L 2719 4050
L 2719 2350
L 2266 2350
L 2266 4050
L 372 4050
L 372 4494
L 3009 4494
Q 2856 4744 2400 5031
L 2694 5331
Q 3203 5041 3513 4634
L 3341 4513
L 3341 4494
L 5813 4494
L 5813 4050
z
M 1947 3519
Q 1559 2866 775 2059
L 416 2425
Q 1016 2938 1594 3809
L 1947 3519
z
M 5838 2484
L 5409 2209
Q 5081 2878 4306 3488
L 4653 3756
Q 5550 3047 5838 2484
z
M 5978 78
L 5691 -366
Q 5153 -297 4609 -142
Q 4066 13 3188 481
Q 2103 -150 519 -378
Q 438 -222 244 63
Q 1741 225 2753 775
Q 2309 1069 1819 1784
L 1350 1784
L 1350 2253
L 4603 2253
L 4603 1791
Q 4038 1091 3597 775
Q 4497 263 5978 78
z
M 3975 1784
L 2413 1784
Q 2641 1425 3188 1044
Q 3763 1481 3975 1784
z
" transform="scale(0.015625)"/>
      <path id="ArialUnicodeMS-5316" d="M 2431 5147
Q 2322 4731 2081 4159
L 1844 3603
L 1844 -366
L 1350 -366
L 1350 2834
Q 1006 2356 653 2075
L 306 2444
Q 1350 3319 2003 5350
L 2431 5147
z
M 6081 1325
Q 5994 419 5786 114
Q 5578 -191 5203 -191
L 3872 -191
Q 3534 -191 3339 -12
Q 3144 166 3144 469
L 3144 5178
L 3628 5178
L 3628 2853
Q 4478 3413 5288 4488
L 5709 4197
Q 4800 2984 3628 2272
L 3628 550
Q 3628 288 3981 288
L 5113 288
Q 5553 288 5581 1503
L 6081 1325
z
" transform="scale(0.015625)"/>
      <path id="ArialUnicodeMS-ff08" d="M 3964 -1344
L 3561 -1344
Q 3042 -681 2745 103
Q 2448 888 2448 1656
Q 2448 2528 2764 3275
Q 3080 4022 3561 4659
L 3964 4659
Q 3408 3747 3219 3059
Q 3030 2372 3030 1663
Q 3030 153 3964 -1344
z
" transform="scale(0.015625)"/>
      <path id="ArialUnicodeMS-25" d="M 4325 4659
L 1838 -159
L 1369 -159
L 3872 4659
L 4325 4659
z
M 1428 4653
Q 1856 4653 2137 4343
Q 2419 4034 2419 3438
Q 2419 2850 2131 2539
Q 1844 2228 1434 2228
Q 1009 2228 739 2540
Q 469 2853 469 3475
Q 469 3984 722 4318
Q 975 4653 1428 4653
z
M 1441 2619
Q 1931 2619 1931 3463
Q 1931 4269 1441 4269
Q 953 4269 953 3419
Q 953 2619 1441 2619
z
M 4250 2253
Q 4681 2253 4961 1943
Q 5241 1634 5241 1038
Q 5241 600 5087 328
Q 4934 56 4709 -58
Q 4484 -172 4256 -172
Q 3831 -172 3561 140
Q 3291 453 3291 1075
Q 3291 1584 3544 1918
Q 3797 2253 4250 2253
z
M 4263 219
Q 4756 219 4756 1063
Q 4756 1869 4263 1869
Q 3775 1869 3775 1019
Q 3775 219 4263 219
z
" transform="scale(0.015625)"/>
      <path id="ArialUnicodeMS-ff09" d="M 2850 4659
Q 3369 3997 3666 3212
Q 3963 2428 3963 1656
Q 3963 788 3647 41
Q 3332 -706 2850 -1344
L 2447 -1344
Q 3004 -431 3193 255
Q 3382 941 3382 1650
Q 3382 3163 2447 4659
L 2850 4659
z
" transform="scale(0.015625)"/>
     </defs>
     <use xlink:href="#ArialUnicodeMS-8ba4"/>
     <use xlink:href="#ArialUnicodeMS-77e5" transform="translate(100 0)"/>
     <use xlink:href="#ArialUnicodeMS-804c" transform="translate(200 0)"/>
     <use xlink:href="#ArialUnicodeMS-4e1a" transform="translate(300 0)"/>
     <use xlink:href="#ArialUnicodeMS-5de5" transform="translate(400 0)"/>
     <use xlink:href="#ArialUnicodeMS-8d44" transform="translate(500 0)"/>
     <use xlink:href="#ArialUnicodeMS-53d8" transform="translate(600 0)"/>
     <use xlink:href="#ArialUnicodeMS-5316" transform="translate(700 0)"/>
     <use xlink:href="#ArialUnicodeMS-ff08" transform="translate(800 0)"/>
     <use xlink:href="#ArialUnicodeMS-25" transform="translate(900 0)"/>
     <use xlink:href="#ArialUnicodeMS-ff09" transform="translate(988.916016 0)"/>
    </g>
   </g>
  </g>
  <g id="axes_2">
   <g id="patch_8">
    <path d="M 72.576 544.32
L 379.008 544.32
L 379.008 380.8
L 72.576 380.8
z
" style="fill: #f7f5ef"/>
   </g>
   <g id="matplotlib.axis_3">
    <g id="xtick_5">
     <g id="line2d_12">
      <g>
       <use xlink:href="#m3e79e34af6" x="109.070822" y="544.32" style="fill: #60757b; stroke: #60757b; stroke-width: 0.8"/>
      </g>
     </g>
     <g id="text_13">
      <!-- 0 -->
      <g style="fill: #60757b" transform="translate(104.622072 562.7725) scale(0.16 -0.16)">
       <use xlink:href="#ArialUnicodeMS-30"/>
      </g>
     </g>
    </g>
    <g id="xtick_6">
     <g id="line2d_13">
      <g>
       <use xlink:href="#m3e79e34af6" x="186.884941" y="544.32" style="fill: #60757b; stroke: #60757b; stroke-width: 0.8"/>
      </g>
     </g>
     <g id="text_14">
      <!-- 0.5 -->
      <g style="fill: #60757b" transform="translate(175.764941 562.7725) scale(0.16 -0.16)">
       <use xlink:href="#ArialUnicodeMS-30"/>
       <use xlink:href="#ArialUnicodeMS-2e" transform="translate(55.615234 0)"/>
       <use xlink:href="#ArialUnicodeMS-35" transform="translate(83.398438 0)"/>
      </g>
     </g>
    </g>
    <g id="xtick_7">
     <g id="line2d_14">
      <g>
       <use xlink:href="#m3e79e34af6" x="264.699059" y="544.32" style="fill: #60757b; stroke: #60757b; stroke-width: 0.8"/>
      </g>
     </g>
     <g id="text_15">
      <!-- 0.75 -->
      <g style="fill: #60757b" transform="translate(249.130309 562.7725) scale(0.16 -0.16)">
       <use xlink:href="#ArialUnicodeMS-30"/>
       <use xlink:href="#ArialUnicodeMS-2e" transform="translate(55.615234 0)"/>
       <use xlink:href="#ArialUnicodeMS-37" transform="translate(83.398438 0)"/>
       <use xlink:href="#ArialUnicodeMS-35" transform="translate(139.013672 0)"/>
      </g>
     </g>
    </g>
    <g id="xtick_8">
     <g id="line2d_15">
      <g>
       <use xlink:href="#m3e79e34af6" x="342.513178" y="544.32" style="fill: #60757b; stroke: #60757b; stroke-width: 0.8"/>
      </g>
     </g>
     <g id="text_16">
      <!-- 0.9 -->
      <g style="fill: #60757b" transform="translate(331.393178 562.7725) scale(0.16 -0.16)">
       <use xlink:href="#ArialUnicodeMS-30"/>
       <use xlink:href="#ArialUnicodeMS-2e" transform="translate(55.615234 0)"/>
       <use xlink:href="#ArialUnicodeMS-39" transform="translate(83.398438 0)"/>
      </g>
     </g>
    </g>
    <g id="text_17">
     <!-- 年尺度工资黏性 ξ → -->
     <g style="fill: #233d43" transform="translate(151.835359 592.253281) scale(0.17 -0.17)">
      <defs>
       <path id="ArialUnicodeMS-5e74" d="M 5869 1409
L 3659 1409
L 3659 -434
L 3156 -434
L 3156 1409
L 659 1409
L 659 1875
L 1459 1875
L 1459 3384
L 3156 3384
L 3156 4219
L 1838 4219
Q 1425 3363 953 2931
L 550 3256
Q 1381 3994 1734 5381
L 2144 5184
Q 2122 4997 2022 4684
L 5606 4684
L 5606 4219
L 3659 4219
L 3659 3384
L 5294 3384
L 5294 2919
L 3659 2919
L 3659 1875
L 5869 1875
L 5869 1409
z
M 3156 1875
L 3156 2919
L 1947 2919
L 1947 1875
L 3156 1875
z
" transform="scale(0.015625)"/>
       <path id="ArialUnicodeMS-5c3a" d="M 5925 25
L 5606 -409
Q 4672 -97 4009 697
Q 3347 1491 3138 2559
L 2059 2559
Q 1972 1338 1656 678
Q 1341 19 844 -469
L 441 -116
Q 1028 594 1150 766
Q 1272 938 1408 1373
Q 1544 1809 1544 2547
L 1544 4897
L 5025 4897
L 5025 2559
L 3659 2559
Q 3825 1681 4458 945
Q 5091 209 5925 25
z
M 4538 3028
L 4538 4428
L 2028 4428
L 2028 3028
L 4538 3028
z
" transform="scale(0.015625)"/>
       <path id="ArialUnicodeMS-5ea6" d="M 5913 4269
L 1363 4269
L 1363 2278
Q 1363 1144 1180 528
Q 997 -88 684 -434
L 294 -147
Q 669 378 773 940
Q 878 1503 878 2350
L 878 4738
L 3200 4738
L 3200 5288
L 3706 5288
L 3706 4738
L 5913 4738
L 5913 4269
z
M 5778 3194
L 4728 3194
L 4728 2303
L 2350 2303
L 2350 3194
L 1472 3194
L 1472 3659
L 2350 3659
L 2350 4147
L 2828 4147
L 2828 3659
L 4244 3659
L 4244 4147
L 4728 4147
L 4728 3659
L 5778 3659
L 5778 3194
z
M 4244 2747
L 4244 3194
L 2834 3194
L 2834 2747
L 4244 2747
z
M 6081 72
L 5819 -397
Q 4484 -216 3531 263
Q 2494 -234 1388 -397
L 1088 44
Q 2078 134 3034 550
Q 2509 934 2113 1528
L 1625 1528
L 1625 1972
L 5159 1972
L 5159 1544
Q 4819 1025 4044 538
Q 4963 166 6081 72
z
M 4544 1528
L 2700 1528
Q 3125 1038 3531 781
Q 4194 1159 4544 1528
z
" transform="scale(0.015625)"/>
       <path id="ArialUnicodeMS-9ecf" d="M 6119 3659
L 4897 3659
L 4897 2322
L 5716 2322
L 5716 -397
L 5228 -397
L 5228 -25
L 4225 -25
L 4225 -397
L 3738 -397
L 3738 500
L 3531 128
Q 2966 581 2431 678
L 2431 128
Q 2369 -397 1931 -397
L 1550 -397
L 1388 122
Q 1778 72 1831 72
Q 1966 72 1966 153
L 1966 2450
L 2431 2450
L 2431 1600
Q 2994 1859 3109 2016
L 3438 1716
Q 3222 1459 2706 1222
L 2431 1538
L 2431 738
L 2650 1081
Q 3166 984 3738 569
L 3738 2234
L 3469 1906
Q 2728 2188 2156 2809
Q 1638 2197 525 1753
L 250 2188
Q 1450 2622 1894 3219
L 1894 3719
Q 1578 3163 666 2700
L 331 3072
Q 1138 3459 1422 3866
L 506 3866
L 506 4341
L 1881 4341
Q 1891 4475 1881 4609
Q 1719 4569 709 4550
L 494 5069
Q 847 5041 1181 5041
Q 2334 5041 3256 5363
L 3578 4984
Q 3144 4803 2381 4659
L 2381 4341
L 3756 4341
L 3756 3866
L 2381 3866
L 2381 3659
L 2759 3841
Q 3072 3425 3775 3144
L 3469 2809
Q 2781 3031 2381 3616
L 2381 3278
L 2503 3225
L 2438 3150
Q 2703 2819 3178 2570
Q 3653 2322 3731 2322
L 4366 2322
L 4366 5306
L 4897 5306
L 4897 4134
L 6119 4134
L 6119 3659
z
M 5228 428
L 5228 1869
L 4206 1869
L 4206 428
L 5228 428
z
M 1953 1503
L 1625 1166
Q 1325 1494 884 1678
L 1184 2022
Q 1578 1888 1953 1503
z
M 1881 647
L 653 256
L 391 684
L 1881 1113
L 1881 647
z
" transform="scale(0.015625)"/>
       <path id="ArialUnicodeMS-6027" d="M 6088 6
L 2322 6
L 2322 475
L 3928 475
L 3928 1778
L 2669 1778
L 2669 2247
L 3928 2247
L 3928 3463
L 3169 3463
Q 2978 2881 2606 2375
L 2113 2597
Q 2363 2838 2438 3003
L 2203 2900
Q 2078 3494 1766 3866
L 1766 -434
L 1281 -434
L 1281 5281
L 1766 5281
L 1766 3928
L 2138 4128
Q 2413 3813 2597 3347
Q 2844 3763 2894 4775
L 3378 4647
Q 3363 4338 3291 3928
L 3928 3928
L 3928 5294
L 4416 5294
L 4416 3928
L 5759 3928
L 5759 3463
L 4416 3463
L 4416 2247
L 5569 2247
L 5569 1778
L 4416 1778
L 4416 475
L 6088 475
L 6088 6
z
M 1241 3897
Q 1175 2956 763 2344
L 347 2528
Q 819 3406 819 4025
L 1241 3897
z
" transform="scale(0.015625)"/>
       <path id="ArialUnicodeMS-20" transform="scale(0.015625)"/>
       <path id="ArialUnicodeMS-3be" d="M 2316 2606
Q 1591 2606 1195 2215
Q 800 1825 800 1344
Q 800 981 1008 770
Q 1216 559 1728 500
Q 2688 388 2688 -353
Q 2688 -769 2356 -1047
Q 2025 -1325 1428 -1344
L 1575 -825
Q 2144 -769 2144 -384
Q 2144 -234 2025 -140
Q 1906 -47 1606 -6
Q 750 103 487 479
Q 225 856 225 1300
Q 225 1772 489 2147
Q 753 2522 1241 2741
Q 806 2813 601 3078
Q 397 3344 397 3647
Q 397 3922 558 4158
Q 719 4394 1031 4526
Q 1344 4659 1791 4659
L 2350 4659
L 2350 4197
L 1850 4197
Q 1409 4197 1159 4047
Q 909 3897 909 3609
Q 909 3066 1850 3066
L 2316 3066
L 2316 2606
z
" transform="scale(0.015625)"/>
       <path id="ArialUnicodeMS-2192" d="M 4306 1563
Q 3528 1278 3091 641
L 2869 641
Q 3019 1088 3372 1484
L 256 1484
L 256 1791
L 3372 1791
Q 3019 2188 2869 2638
L 3091 2638
Q 3528 2000 4306 1716
L 4306 1563
z
" transform="scale(0.015625)"/>
      </defs>
      <use xlink:href="#ArialUnicodeMS-5e74"/>
      <use xlink:href="#ArialUnicodeMS-5c3a" transform="translate(100 0)"/>
      <use xlink:href="#ArialUnicodeMS-5ea6" transform="translate(200 0)"/>
      <use xlink:href="#ArialUnicodeMS-5de5" transform="translate(300 0)"/>
      <use xlink:href="#ArialUnicodeMS-8d44" transform="translate(400 0)"/>
      <use xlink:href="#ArialUnicodeMS-9ecf" transform="translate(500 0)"/>
      <use xlink:href="#ArialUnicodeMS-6027" transform="translate(600 0)"/>
      <use xlink:href="#ArialUnicodeMS-20" transform="translate(700 0)"/>
      <use xlink:href="#ArialUnicodeMS-3be" transform="translate(727.783203 0)"/>
      <use xlink:href="#ArialUnicodeMS-20" transform="translate(770.996094 0)"/>
      <use xlink:href="#ArialUnicodeMS-2192" transform="translate(798.779297 0)"/>
     </g>
    </g>
   </g>
   <g id="matplotlib.axis_4">
    <g id="ytick_4">
     <g id="line2d_16">
      <path d="M 72.576 544.32
L 379.008 544.32
" clip-path="url(#pec82eb67e3)" style="fill: none; stroke: #d5dfda; stroke-width: 0.8; stroke-linecap: square"/>
     </g>
     <g id="line2d_17">
      <g>
       <use xlink:href="#m8a0102f0a8" x="72.576" y="544.32" style="fill: #60757b; stroke: #60757b; stroke-width: 0.8"/>
      </g>
     </g>
     <g id="text_18">
      <!-- 0 -->
      <g style="fill: #60757b" transform="translate(56.122406 550.404141) scale(0.17 -0.17)">
       <use xlink:href="#ArialUnicodeMS-30"/>
      </g>
     </g>
    </g>
    <g id="ytick_5">
     <g id="line2d_18">
      <path d="M 72.576 503.44
L 379.008 503.44
" clip-path="url(#pec82eb67e3)" style="fill: none; stroke: #d5dfda; stroke-width: 0.8; stroke-linecap: square"/>
     </g>
     <g id="line2d_19">
      <g>
       <use xlink:href="#m8a0102f0a8" x="72.576" y="503.44" style="fill: #60757b; stroke: #60757b; stroke-width: 0.8"/>
      </g>
     </g>
     <g id="text_19">
      <!-- 5 -->
      <g style="fill: #60757b" transform="translate(56.122406 509.524141) scale(0.17 -0.17)">
       <use xlink:href="#ArialUnicodeMS-35"/>
      </g>
     </g>
    </g>
    <g id="ytick_6">
     <g id="line2d_20">
      <path d="M 72.576 462.56
L 379.008 462.56
" clip-path="url(#pec82eb67e3)" style="fill: none; stroke: #d5dfda; stroke-width: 0.8; stroke-linecap: square"/>
     </g>
     <g id="line2d_21">
      <g>
       <use xlink:href="#m8a0102f0a8" x="72.576" y="462.56" style="fill: #60757b; stroke: #60757b; stroke-width: 0.8"/>
      </g>
     </g>
     <g id="text_20">
      <!-- 10 -->
      <g style="fill: #60757b" transform="translate(46.668812 468.644141) scale(0.17 -0.17)">
       <use xlink:href="#ArialUnicodeMS-31"/>
       <use xlink:href="#ArialUnicodeMS-30" transform="translate(55.615234 0)"/>
      </g>
     </g>
    </g>
    <g id="ytick_7">
     <g id="line2d_22">
      <path d="M 72.576 421.68
L 379.008 421.68
" clip-path="url(#pec82eb67e3)" style="fill: none; stroke: #d5dfda; stroke-width: 0.8; stroke-linecap: square"/>
     </g>
     <g id="line2d_23">
      <g>
       <use xlink:href="#m8a0102f0a8" x="72.576" y="421.68" style="fill: #60757b; stroke: #60757b; stroke-width: 0.8"/>
      </g>
     </g>
     <g id="text_21">
      <!-- 15 -->
      <g style="fill: #60757b" transform="translate(46.668812 427.764141) scale(0.17 -0.17)">
       <use xlink:href="#ArialUnicodeMS-31"/>
       <use xlink:href="#ArialUnicodeMS-35" transform="translate(55.615234 0)"/>
      </g>
     </g>
    </g>
    <g id="ytick_8">
     <g id="line2d_24">
      <path d="M 72.576 380.8
L 379.008 380.8
" clip-path="url(#pec82eb67e3)" style="fill: none; stroke: #d5dfda; stroke-width: 0.8; stroke-linecap: square"/>
     </g>
     <g id="line2d_25">
      <g>
       <use xlink:href="#m8a0102f0a8" x="72.576" y="380.8" style="fill: #60757b; stroke: #60757b; stroke-width: 0.8"/>
      </g>
     </g>
     <g id="text_22">
      <!-- 20 -->
      <g style="fill: #60757b" transform="translate(46.668812 386.884141) scale(0.17 -0.17)">
       <use xlink:href="#ArialUnicodeMS-32"/>
       <use xlink:href="#ArialUnicodeMS-30" transform="translate(55.615234 0)"/>
      </g>
     </g>
    </g>
   </g>
   <g id="line2d_26">
    <path d="M 72.576 544.32
L 379.008 544.32
" clip-path="url(#pec82eb67e3)" style="fill: none; stroke: #60757b; stroke-linecap: square"/>
   </g>
   <g id="patch_9">
    <path d="M 72.576 544.32
L 379.008 544.32
" style="fill: none; stroke: #d5dfda; stroke-width: 0.8; stroke-linejoin: miter; stroke-linecap: square"/>
   </g>
   <g id="patch_10">
    <path d="M 86.504727 544.32
L 131.636916 544.32
L 131.636916 518.9744
L 86.504727 518.9744
z
" clip-path="url(#pec82eb67e3)" style="fill: #466ba3"/>
   </g>
   <g id="patch_11">
    <path d="M 164.318846 544.32
L 209.451035 544.32
L 209.451035 447.0256
L 164.318846 447.0256
z
" clip-path="url(#pec82eb67e3)" style="fill: #177b76"/>
   </g>
   <g id="patch_12">
    <path d="M 242.132965 544.32
L 287.265154 544.32
L 287.265154 430.6736
L 242.132965 430.6736
z
" clip-path="url(#pec82eb67e3)" style="fill: #b66b3d"/>
   </g>
   <g id="patch_13">
    <path d="M 319.947084 544.32
L 365.079273 544.32
L 365.079273 420.0448
L 319.947084 420.0448
z
" clip-path="url(#pec82eb67e3)" style="fill: #9d543f"/>
   </g>
   <g id="text_23">
    <!-- 3.1 -->
    <g style="fill: #233d43" transform="translate(97.950822 505.1581) scale(0.16 -0.16)">
     <defs>
      <path id="ArialUnicodeMS-33" d="M 2425 2478
Q 2850 2397 3067 2067
Q 3284 1738 3284 1350
Q 3284 725 2829 323
Q 2375 -78 1741 -78
Q 1134 -78 740 275
Q 347 628 281 1209
L 844 1288
Q 928 834 1151 609
Q 1375 384 1741 384
Q 2134 384 2407 661
Q 2681 938 2681 1338
Q 2681 1722 2432 1975
Q 2184 2228 1784 2228
Q 1622 2228 1388 2169
L 1453 2663
Q 1678 2663 1809 2684
Q 1941 2706 2103 2790
Q 2266 2875 2372 3033
Q 2478 3191 2478 3425
Q 2478 3766 2251 3953
Q 2025 4141 1728 4141
Q 1388 4141 1173 3925
Q 959 3709 903 3309
L 341 3413
Q 450 4009 823 4306
Q 1197 4603 1716 4603
Q 2288 4603 2670 4258
Q 3053 3913 3053 3413
Q 3053 2772 2425 2491
L 2425 2478
z
" transform="scale(0.015625)"/>
     </defs>
     <use xlink:href="#ArialUnicodeMS-33"/>
     <use xlink:href="#ArialUnicodeMS-2e" transform="translate(55.615234 0)"/>
     <use xlink:href="#ArialUnicodeMS-31" transform="translate(83.398438 0)"/>
    </g>
   </g>
   <g id="text_24">
    <!-- 11.9 -->
    <g style="fill: #233d43" transform="translate(171.316191 433.2093) scale(0.16 -0.16)">
     <use xlink:href="#ArialUnicodeMS-31"/>
     <use xlink:href="#ArialUnicodeMS-31" transform="translate(55.615234 0)"/>
     <use xlink:href="#ArialUnicodeMS-2e" transform="translate(111.230469 0)"/>
     <use xlink:href="#ArialUnicodeMS-39" transform="translate(139.013672 0)"/>
    </g>
   </g>
   <g id="text_25">
    <!-- 13.9 -->
    <g style="fill: #233d43" transform="translate(249.130309 416.8573) scale(0.16 -0.16)">
     <use xlink:href="#ArialUnicodeMS-31"/>
     <use xlink:href="#ArialUnicodeMS-33" transform="translate(55.615234 0)"/>
     <use xlink:href="#ArialUnicodeMS-2e" transform="translate(111.230469 0)"/>
     <use xlink:href="#ArialUnicodeMS-39" transform="translate(139.013672 0)"/>
    </g>
   </g>
   <g id="text_26">
    <!-- 15.2 -->
    <g style="fill: #233d43" transform="translate(326.944428 406.2285) scale(0.16 -0.16)">
     <use xlink:href="#ArialUnicodeMS-31"/>
     <use xlink:href="#ArialUnicodeMS-35" transform="translate(55.615234 0)"/>
     <use xlink:href="#ArialUnicodeMS-2e" transform="translate(111.230469 0)"/>
     <use xlink:href="#ArialUnicodeMS-32" transform="translate(139.013672 0)"/>
    </g>
   </g>
   <g id="text_27">
    <!-- 全体劳动者失业率（%） -->
    <g style="fill: #233d43" transform="translate(72.576 363.8) scale(0.18 -0.18)">
     <defs>
      <path id="ArialUnicodeMS-5168" d="M 5984 2963
L 5703 2522
Q 5419 2628 4872 2869
L 4872 2613
L 3366 2613
L 3366 1728
L 4691 1728
L 4691 1259
L 3366 1259
L 3366 319
L 5678 319
L 5678 -147
L 603 -147
L 603 319
L 2881 319
L 2881 1259
L 1556 1259
L 1556 1728
L 2881 1728
L 2881 2613
L 1344 2613
L 1344 2841
Q 1250 2766 544 2491
L 256 2925
Q 2109 3556 3066 5141
L 3531 4928
L 3419 4738
Q 4144 3581 5984 2963
z
M 4603 3072
Q 3694 3488 3097 4313
Q 2572 3578 1703 3072
L 4603 3072
z
" transform="scale(0.015625)"/>
      <path id="ArialUnicodeMS-4f53" d="M 2222 5113
Q 2181 4706 1963 4103
L 1741 3519
L 1741 -384
L 1247 -384
L 1247 2650
Q 1047 2381 666 1972
L 238 2259
Q 1303 3228 1797 5319
L 2222 5113
z
M 6181 1159
L 5819 781
Q 5259 1197 4886 1742
Q 4513 2288 4184 3547
L 4172 3547
L 4172 1288
L 5209 1288
L 5209 819
L 4172 819
L 4172 -409
L 3688 -409
L 3688 819
L 2675 819
L 2675 1288
L 3688 1288
L 3688 3297
Q 3322 1781 2106 809
L 1753 1169
Q 2356 1700 2659 2198
Q 2963 2697 3200 3597
L 1997 3597
L 1997 4063
L 3688 4063
L 3688 5306
L 4172 5306
L 4172 4063
L 5919 4063
L 5919 3597
L 4653 3597
Q 4894 2622 5216 2133
Q 5538 1644 6181 1159
z
" transform="scale(0.015625)"/>
      <path id="ArialUnicodeMS-52b3" d="M 5856 4238
L 4275 4238
L 4275 3706
L 3788 3706
L 3788 4238
L 2438 4238
L 2438 3706
L 1953 3706
L 1953 4238
L 409 4238
L 409 4703
L 1953 4703
L 1953 5313
L 2438 5313
L 2438 4703
L 3788 4703
L 3788 5313
L 4275 5313
L 4275 4703
L 5856 4703
L 5856 4238
z
M 5734 2547
L 5247 2547
L 5247 3156
L 1006 3156
L 1006 2547
L 519 2547
L 519 3597
L 5734 3597
L 5734 2547
z
M 5113 2400
Q 5091 1753 4998 1022
Q 4906 291 4823 108
Q 4741 -75 4595 -190
Q 4450 -306 4188 -306
Q 3916 -306 3456 -191
L 3359 378
Q 3950 178 4153 178
Q 4353 178 4456 629
Q 4559 1081 4609 1931
L 3097 1931
Q 2919 991 2375 466
Q 1831 -59 666 -391
L 378 56
Q 1397 300 1906 729
Q 2416 1159 2606 1931
L 1006 1931
L 1006 2400
L 2681 2400
Q 2725 2622 2725 2994
L 3194 2963
Q 3194 2659 3175 2400
L 5113 2400
z
" transform="scale(0.015625)"/>
      <path id="ArialUnicodeMS-52a8" d="M 5678 3834
Q 5613 2631 5508 1595
Q 5403 559 5328 262
Q 5253 -34 5048 -161
Q 4844 -288 4591 -288
Q 4416 -288 4097 -256
Q 4016 25 3944 238
Q 4550 172 4644 172
Q 4703 172 4812 456
Q 4922 741 5023 1741
Q 5125 2741 5159 3391
L 4359 3391
Q 4366 1738 3883 889
Q 3400 41 2528 -384
L 2156 25
Q 2716 300 3009 634
Q 2913 850 2719 1075
Q 1478 731 763 475
L 428 959
Q 678 1172 1014 1786
Q 1350 2400 1503 2906
L 353 2906
L 353 3372
L 3144 3372
L 3144 2906
L 2041 2906
Q 1500 1597 1125 1125
L 1141 1113
L 2444 1484
Q 2397 1556 2125 1797
L 2478 2047
Q 3131 1475 3359 997
Q 3528 1178 3697 1742
Q 3866 2306 3866 2888
L 3866 3391
L 3194 3391
L 3194 3834
L 3866 3834
L 3866 5319
L 4353 5325
L 4353 3834
L 5678 3834
z
M 2881 4219
L 603 4219
L 603 4659
L 2881 4659
L 2881 4219
z
" transform="scale(0.015625)"/>
      <path id="ArialUnicodeMS-8005" d="M 5947 2931
L 3706 2931
Q 3225 2606 2822 2413
L 5106 2413
L 5106 -409
L 4622 -409
L 4622 -31
L 2450 -31
L 2450 -409
L 1966 -409
L 1966 1947
L 709 1416
L 397 1838
Q 1816 2338 2803 2925
L 744 2925
L 744 3397
L 2741 3397
L 2741 4091
L 1356 4091
L 1356 4556
L 2741 4556
L 2741 5350
L 3244 5350
L 3244 4556
L 4441 4556
L 4441 4178
Q 4838 4628 5131 4991
L 5556 4722
Q 4878 3850 4341 3397
L 5947 3397
L 5947 2931
z
M 4347 4091
L 3244 4091
L 3238 3397
L 3566 3397
Q 3872 3625 4347 4091
z
M 4622 1447
L 4622 1953
L 2450 1953
L 2450 1447
L 4622 1447
z
M 4622 434
L 4622 978
L 2450 978
L 2450 434
L 4622 434
z
" transform="scale(0.015625)"/>
      <path id="ArialUnicodeMS-5931" d="M 6022 19
L 5691 -416
Q 3863 413 3413 2016
Q 2884 466 903 -447
L 550 -6
Q 2372 756 2913 2094
L 781 2094
L 781 2559
L 3041 2559
Q 3150 3038 3150 3700
L 1959 3700
Q 1650 3113 1313 2700
L 863 2963
Q 1666 3872 1797 4891
L 2234 4728
Q 2228 4628 2125 4166
L 3163 4166
L 3163 5306
L 3647 5306
L 3647 4166
L 5300 4166
L 5300 3700
L 3653 3700
Q 3616 2794 3566 2559
L 5766 2559
L 5766 2094
L 3916 2094
Q 4041 1509 4636 931
Q 5231 353 6022 19
z
" transform="scale(0.015625)"/>
      <path id="ArialUnicodeMS-7387" d="M 5663 4313
L 3469 4313
Q 3113 3806 2828 3488
L 3244 3309
Q 3453 3538 3822 4078
L 4263 3872
Q 3531 2878 3022 2356
L 3809 2406
Q 3738 2594 3591 2822
L 4019 2969
Q 4375 2419 4459 1813
L 3988 1678
Q 3988 1806 3938 1966
L 2150 1819
L 1997 2316
L 2431 2328
Q 2616 2500 2931 2906
Q 2372 3163 1978 3278
L 2203 3731
L 2419 3647
Q 2634 3900 2888 4313
L 709 4313
L 709 4781
L 2956 4781
L 2956 5375
L 3444 5375
L 3444 4781
L 5663 4781
L 5663 4313
z
M 5734 3922
Q 5091 3316 4581 3128
L 4294 3553
Q 4947 3791 5447 4281
L 5734 3922
z
M 1984 3397
L 1619 3059
Q 1263 3534 653 3853
L 947 4184
Q 1531 3975 1984 3397
z
M 2131 2597
Q 1419 2031 763 1813
L 459 2209
Q 1238 2447 1863 2994
L 2131 2597
z
M 5906 2216
L 5619 1831
Q 5109 2341 4306 2553
L 4550 2938
Q 5391 2722 5906 2216
z
M 5941 1038
L 3456 1038
L 3456 -441
L 2963 -441
L 2963 1038
L 459 1038
L 459 1503
L 2963 1503
L 2963 1831
L 3456 1831
L 3456 1503
L 5941 1503
L 5941 1038
z
" transform="scale(0.015625)"/>
     </defs>
     <use xlink:href="#ArialUnicodeMS-5168"/>
     <use xlink:href="#ArialUnicodeMS-4f53" transform="translate(100 0)"/>
     <use xlink:href="#ArialUnicodeMS-52b3" transform="translate(200 0)"/>
     <use xlink:href="#ArialUnicodeMS-52a8" transform="translate(300 0)"/>
     <use xlink:href="#ArialUnicodeMS-8005" transform="translate(400 0)"/>
     <use xlink:href="#ArialUnicodeMS-5931" transform="translate(500 0)"/>
     <use xlink:href="#ArialUnicodeMS-4e1a" transform="translate(600 0)"/>
     <use xlink:href="#ArialUnicodeMS-7387" transform="translate(700 0)"/>
     <use xlink:href="#ArialUnicodeMS-ff08" transform="translate(800 0)"/>
     <use xlink:href="#ArialUnicodeMS-25" transform="translate(900 0)"/>
     <use xlink:href="#ArialUnicodeMS-ff09" transform="translate(988.916016 0)"/>
    </g>
   </g>
  </g>
  <g id="text_28">
   <!-- 调整代价在工资与失业间移动 -->
   <g style="fill: #233d43" transform="translate(32.256 27.216) scale(0.19 -0.19)">
    <defs>
     <path id="ArialUnicodeMS-8c03" d="M 1991 4306
L 1606 3975
Q 1400 4422 838 4897
L 1166 5184
Q 1728 4806 1991 4306
z
M 5741 294
Q 5741 16 5577 -165
Q 5413 -347 5147 -347
L 4544 -347
L 4378 128
Q 4831 106 5006 106
Q 5166 106 5209 150
Q 5253 194 5253 288
L 5253 4538
L 3016 4538
L 3016 2859
L 3025 1884
Q 3025 869 2828 348
Q 2631 -172 2316 -544
L 1900 -238
Q 2225 181 2353 518
Q 2481 856 2504 1259
Q 2528 1663 2528 2938
L 2528 5006
L 5741 5006
L 5741 294
z
M 5119 2463
L 3163 2463
L 3163 2906
L 3903 2906
L 3903 3384
L 3206 3384
L 3206 3828
L 3903 3828
L 3903 4384
L 4366 4384
L 4366 3828
L 5069 3828
L 5069 3384
L 4366 3384
L 4366 2906
L 5119 2906
L 5119 2463
z
M 2388 850
L 1478 269
L 1197 678
Q 1288 834 1288 959
L 1288 3003
L 459 3003
L 459 3469
L 1772 3469
L 1772 1038
L 2388 1369
L 2388 850
z
M 4884 550
L 3378 550
L 3378 2228
L 4884 2228
L 4884 550
z
M 4422 991
L 4422 1784
L 3841 1784
L 3841 991
L 4422 991
z
" transform="scale(0.015625)"/>
     <path id="ArialUnicodeMS-6574" d="M 6053 2322
L 5825 1953
Q 5019 2141 4575 2553
Q 4088 2206 3519 1953
L 3278 2316
Q 3838 2544 4269 2900
Q 4088 3169 3963 3494
L 3725 3128
L 3384 3322
L 3384 3003
L 2541 3003
Q 2988 2866 3406 2516
L 3103 2156
Q 2831 2428 2344 2631
L 2344 1984
L 1856 1984
L 1856 2919
Q 1572 2306 609 1913
L 384 2309
Q 1103 2569 1422 3003
L 763 3003
L 763 4219
L 1856 4219
L 1856 4416
L 488 4416
L 488 4884
L 1856 4884
L 1856 5331
L 2344 5331
L 2344 4884
L 3688 4884
L 3688 4416
L 2344 4416
L 2344 4219
L 3384 4219
L 3384 3444
Q 3919 4209 4109 5375
L 4603 5234
Q 4491 4816 4409 4569
L 5875 4569
L 5875 4103
L 5509 4103
Q 5241 3209 4916 2875
Q 5272 2506 6053 2322
z
M 5031 4103
L 4256 4103
L 4225 3994
Q 4453 3388 4594 3219
Q 4916 3619 5031 4103
z
M 2900 3444
L 2900 3775
L 2344 3775
L 2344 3444
L 2900 3444
z
M 1856 3444
L 1856 3775
L 1222 3775
L 1222 3444
L 1856 3444
z
M 2413 3003
L 2344 3003
L 2344 2900
L 2413 3003
z
M 6047 -116
L 325 -116
L 325 325
L 1369 325
L 1369 1197
L 1856 1197
L 1856 325
L 2900 325
L 2900 1466
L 716 1466
L 716 1931
L 5684 1931
L 5684 1466
L 3384 1466
L 3384 1159
L 5381 1159
L 5381 716
L 3384 716
L 3384 325
L 6047 325
L 6047 -116
z
" transform="scale(0.015625)"/>
     <path id="ArialUnicodeMS-4ee3" d="M 2438 5119
Q 2325 4741 2097 4194
L 1869 3653
L 1869 -434
L 1381 -434
L 1381 2919
Q 1200 2553 697 2041
L 294 2344
Q 1381 3447 1991 5313
L 2438 5119
z
M 6125 991
Q 6100 781 5947 298
Q 5794 -184 5656 -281
Q 5519 -378 5356 -378
Q 5100 -378 4628 -26
Q 4156 325 3812 1044
Q 3469 1763 3347 2753
L 2241 2656
L 2181 3138
L 3291 3231
Q 3178 4506 3188 5300
L 3700 5300
Q 3728 3881 3816 3278
Q 4725 3344 5759 3450
L 5813 2975
L 3872 2797
Q 4034 1797 4451 987
Q 4869 178 5331 178
Q 5497 178 5650 1209
L 6125 991
z
M 5509 4019
L 5113 3694
Q 4566 4472 4078 4769
L 4434 5088
Q 4978 4763 5509 4019
z
" transform="scale(0.015625)"/>
     <path id="ArialUnicodeMS-4ef7" d="M 6284 2975
L 5900 2572
Q 4847 3084 3928 4519
Q 3178 3188 2041 2584
L 1697 2981
Q 3113 3628 3859 5422
L 4281 5184
L 4206 4997
Q 5038 3547 6284 2975
z
M 2241 5172
Q 2156 4775 1913 4147
L 1672 3531
L 1672 -428
L 1184 -428
L 1184 2663
Q 1113 2534 659 2041
L 213 2322
Q 1372 3522 1784 5344
L 2241 5172
z
M 4984 -409
L 4500 -409
L 4500 3116
L 4984 3116
L 4984 -409
z
M 3397 1791
Q 3397 1034 3097 531
Q 2797 28 2059 -475
L 1697 -72
Q 2209 191 2561 647
Q 2913 1103 2913 1528
L 2913 3116
L 3397 3116
L 3397 1791
z
" transform="scale(0.015625)"/>
     <path id="ArialUnicodeMS-5728" d="M 5741 3909
L 2522 3909
Q 2197 3278 2047 3053
L 2047 -416
L 1550 -416
L 1550 2400
Q 1284 2050 684 1491
L 313 1863
Q 1363 2703 1959 3909
L 647 3909
L 647 4384
L 2175 4384
Q 2397 4903 2478 5350
L 2988 5203
L 2719 4384
L 5741 4384
L 5741 3909
z
M 5894 -50
L 2234 -50
L 2234 422
L 3675 422
L 3675 1991
L 2419 1991
L 2419 2463
L 3675 2463
L 3675 3531
L 4166 3531
L 4166 2463
L 5556 2463
L 5556 1991
L 4166 1991
L 4166 422
L 5894 422
L 5894 -50
z
" transform="scale(0.015625)"/>
     <path id="ArialUnicodeMS-4e0e" d="M 5953 3916
L 1881 3916
L 1784 3028
L 5153 3028
L 5081 1734
L 5919 1734
L 5919 1234
L 5050 1234
Q 4984 100 4750 -154
Q 4516 -409 4159 -409
Q 3856 -409 3225 -269
L 3144 300
Q 3863 103 4091 103
Q 4253 103 4348 201
Q 4444 300 4487 711
Q 4531 1122 4531 1234
L 434 1234
L 434 1734
L 4569 1734
Q 4597 2088 4609 2509
L 1728 2509
L 1672 2069
L 1172 2113
L 1528 5281
L 2041 5228
L 1947 4428
L 5953 4428
L 5953 3916
z
" transform="scale(0.015625)"/>
     <path id="ArialUnicodeMS-95f4" d="M 2463 4313
L 2088 4006
Q 1600 4669 1094 4984
L 1484 5247
Q 2044 4888 2463 4313
z
M 5497 178
Q 5497 -50 5353 -181
Q 5209 -313 4853 -313
Q 4753 -313 4506 -300
L 4366 147
Q 4631 106 4806 106
Q 4991 106 5002 142
Q 5013 178 5013 275
L 5013 4453
L 2841 4453
L 2841 4922
L 5497 4922
L 5497 178
z
M 1125 -384
L 641 -384
L 641 4197
L 1125 4197
L 1125 -384
z
M 4306 481
L 3822 481
L 3822 813
L 2375 813
L 2375 481
L 1888 481
L 1888 3669
L 4306 3669
L 4306 481
z
M 3822 2559
L 3822 3200
L 2375 3200
L 2375 2559
L 3822 2559
z
M 3822 1281
L 3822 2094
L 2375 2094
L 2375 1281
L 3822 1281
z
" transform="scale(0.015625)"/>
     <path id="ArialUnicodeMS-79fb" d="M 5850 4738
Q 5391 3000 2944 2216
L 2613 2613
Q 3381 2819 3922 3122
Q 3778 3431 3366 3659
L 3769 3969
Q 4094 3703 4319 3353
Q 4928 3797 5178 4269
L 3944 4269
Q 3500 3816 3009 3547
L 2644 3847
Q 3731 4491 4159 5369
L 4538 5159
Q 4456 4969 4294 4738
L 5850 4738
z
M 2963 1881
L 2578 1606
Q 2259 2219 1997 2369
L 1997 -434
L 1509 -434
L 1509 2119
Q 1288 1622 678 966
L 313 1294
Q 1256 2263 1484 3219
L 628 3219
L 628 3688
L 1516 3688
L 1516 4459
Q 1300 4403 794 4347
L 519 4775
Q 1806 4909 2528 5281
L 2784 4897
Q 2313 4684 1997 4588
L 1997 3688
L 2747 3688
L 2747 3219
L 1997 3219
L 1997 2747
L 2125 2797
Q 2606 2503 2963 1881
z
M 5984 2450
Q 5534 247 2450 -447
L 2113 -13
Q 3400 200 4084 628
Q 3922 950 3559 1234
L 3944 1503
Q 4241 1294 4453 863
Q 5084 1331 5375 1984
L 4331 1984
Q 3672 1322 2713 856
L 2338 1203
Q 3816 1831 4594 2963
L 4959 2759
L 4738 2450
L 5984 2450
z
" transform="scale(0.015625)"/>
    </defs>
    <use xlink:href="#ArialUnicodeMS-8c03"/>
    <use xlink:href="#ArialUnicodeMS-6574" transform="translate(100 0)"/>
    <use xlink:href="#ArialUnicodeMS-4ee3" transform="translate(200 0)"/>
    <use xlink:href="#ArialUnicodeMS-4ef7" transform="translate(300 0)"/>
    <use xlink:href="#ArialUnicodeMS-5728" transform="translate(400 0)"/>
    <use xlink:href="#ArialUnicodeMS-5de5" transform="translate(500 0)"/>
    <use xlink:href="#ArialUnicodeMS-8d44" transform="translate(600 0)"/>
    <use xlink:href="#ArialUnicodeMS-4e0e" transform="translate(700 0)"/>
    <use xlink:href="#ArialUnicodeMS-5931" transform="translate(800 0)"/>
    <use xlink:href="#ArialUnicodeMS-4e1a" transform="translate(900 0)"/>
    <use xlink:href="#ArialUnicodeMS-95f4" transform="translate(1000 0)"/>
    <use xlink:href="#ArialUnicodeMS-79fb" transform="translate(1100 0)"/>
    <use xlink:href="#ArialUnicodeMS-52a8" transform="translate(1200 0)"/>
   </g>
  </g>
  <g id="text_29">
   <!-- 极端变化情景 · ξ 越大，工资调整越慢 -->
   <g style="fill: #60757b" transform="translate(32.256 59.2704) scale(0.14 -0.14)">
    <defs>
     <path id="ArialUnicodeMS-6781" d="M 6222 -91
L 5797 -469
Q 4819 78 4475 475
Q 3747 -184 3175 -453
L 2828 -91
Q 3834 481 4153 863
Q 3713 1453 3488 2053
Q 3488 2059 3491 2056
Q 3494 2050 3450 1828
Q 3347 1284 3097 778
Q 2841 256 2478 -128
L 2259 -359
L 1894 -56
L 1894 -403
L 1416 -409
L 1416 2169
L 1403 2169
Q 1244 1688 691 1050
L 288 1369
Q 1134 2266 1344 3597
L 513 3597
L 513 4063
L 1416 4063
L 1416 5306
L 1894 5306
L 1894 4063
L 2688 4063
L 2688 3597
L 1900 3597
L 1900 2944
L 2034 3041
Q 2684 2434 2809 1972
L 2375 1684
Q 2278 2113 1894 2491
L 1894 25
Q 2519 681 2764 1229
Q 3009 1778 3009 2950
L 3009 4550
L 2478 4550
L 2478 5025
L 5484 5025
L 5484 4538
Q 5219 3819 4991 3397
L 5734 3397
Q 5725 1919 4813 844
Q 5278 316 6222 -91
z
M 5253 2938
L 4409 2938
L 4403 3372
Q 4756 3966 4966 4550
L 3506 4550
L 3506 3519
Q 3809 2106 4459 1247
Q 5094 1891 5253 2938
z
" transform="scale(0.015625)"/>
     <path id="ArialUnicodeMS-7aef" d="M 5734 3525
L 2638 3525
L 2638 4891
L 3122 4891
L 3122 3994
L 3938 3994
L 3938 5313
L 4422 5313
L 4422 3994
L 5247 3994
L 5247 4909
L 5734 4909
L 5734 3525
z
M 2463 3572
L 372 3572
L 372 4038
L 1253 4038
L 1253 5275
L 1741 5275
L 1741 4038
L 2463 4038
L 2463 3572
z
M 2491 709
L 556 166
L 275 653
Q 1097 816 1447 916
Q 1775 1891 1888 3309
L 2363 3219
Q 2291 2153 1959 1056
Q 1966 1056 2491 1203
L 2491 709
z
M 1331 1222
L 878 1106
Q 828 2456 544 3116
L 972 3225
Q 1272 2578 1331 1222
z
M 6028 2669
L 4513 2669
Q 4413 2269 4366 2181
L 5813 2181
L 5813 306
Q 5813 -41 5630 -198
Q 5447 -356 5172 -347
L 4838 -331
L 4678 147
Q 4966 116 4984 116
Q 5166 116 5245 156
Q 5325 197 5325 353
L 5325 1716
L 4891 1716
L 4891 191
L 4428 191
L 4428 1716
L 3981 1716
L 3981 -63
L 3519 -63
L 3519 1716
L 3091 1716
L 3091 -447
L 2606 -447
L 2606 2181
L 3822 2181
Q 3991 2409 4044 2669
L 2438 2669
L 2438 3138
L 6028 3138
L 6028 2669
z
" transform="scale(0.015625)"/>
     <path id="ArialUnicodeMS-60c5" d="M 6009 2944
L 2291 2944
L 1978 2828
Q 1897 3128 1678 3506
L 1678 -422
L 1191 -422
L 1191 5241
L 1678 5241
L 1678 3944
L 1875 4044
Q 2063 3806 2284 3406
L 3744 3406
L 3744 3719
L 2591 3719
L 2591 4178
L 3744 4178
L 3744 4453
L 2322 4453
L 2322 4916
L 3744 4916
L 3744 5356
L 4231 5356
L 4231 4916
L 5691 4916
L 5691 4453
L 4231 4453
L 4231 4178
L 5381 4178
L 5381 3719
L 4231 3719
L 4231 3406
L 6009 3406
L 6009 2944
z
M 1056 3975
Q 1047 3309 563 2456
L 122 2688
Q 616 3441 634 4128
L 1056 3975
z
M 5447 197
Q 5447 -319 4781 -319
L 4281 -319
L 4097 141
Q 4331 128 4469 128
Q 4816 128 4891 167
Q 4966 206 4966 594
L 3078 594
L 3078 -422
L 2591 -422
L 2591 2650
L 5447 2650
L 5447 197
z
M 4959 1888
L 4959 2188
L 3078 2188
L 3078 1888
L 4959 1888
z
M 4959 1056
L 4959 1428
L 3078 1428
L 3078 1056
L 4959 1056
z
" transform="scale(0.015625)"/>
     <path id="ArialUnicodeMS-666f" d="M 5925 2559
L 544 2559
L 544 3003
L 2988 3003
L 2988 3278
L 1241 3278
L 1241 5094
L 5197 5094
L 5197 3278
L 3494 3278
L 3494 3003
L 5925 3003
L 5925 2559
z
M 4709 4384
L 4709 4653
L 1728 4653
L 1728 4384
L 4709 4384
z
M 4709 3719
L 4709 3963
L 1728 3963
L 1728 3719
L 4709 3719
z
M 5075 1006
L 3481 1006
L 3481 109
Q 3481 -141 3382 -261
Q 3284 -381 2975 -384
L 2394 -391
L 2241 56
L 2741 31
Q 2994 22 2994 206
L 2994 1006
L 1375 1006
L 1375 2272
L 5075 2272
L 5075 1006
z
M 4588 1472
L 4588 1831
L 1863 1831
L 1863 1472
L 4588 1472
z
M 2463 603
Q 1753 63 575 -128
L 372 313
Q 1503 438 2194 966
L 2463 603
z
M 6016 244
L 5747 -172
Q 4888 378 3853 513
L 4091 922
Q 5031 809 6016 244
z
" transform="scale(0.015625)"/>
     <path id="ArialUnicodeMS-b7" d="M 1209 1931
L 569 1931
L 569 2572
L 1209 2572
L 1209 1931
z
" transform="scale(0.015625)"/>
     <path id="ArialUnicodeMS-8d8a" d="M 5991 1619
Q 5903 488 5472 488
Q 5166 488 4763 1159
Q 4506 788 3903 372
L 3463 634
Q 4244 1159 4525 1613
Q 4156 2456 4031 3841
L 3634 3841
L 3634 1728
L 4281 2113
L 4281 1575
L 2969 856
L 2719 1300
L 3150 1503
L 3150 4306
L 4000 4306
L 3969 5325
L 4441 5325
Q 4441 4859 4481 4300
L 5819 4313
L 5819 3841
L 4513 3841
Q 4609 2766 4813 2175
Q 5106 2838 5172 3738
L 5606 3469
Q 5528 2575 5056 1613
Q 5231 1250 5441 1044
Q 5525 1244 5538 1894
L 5991 1619
z
M 6156 313
L 5953 -153
L 3116 -153
Q 2094 -153 1247 709
Q 1078 -72 609 -475
L 269 -159
Q 825 394 825 1484
L 825 2456
L 1313 2456
L 1313 1350
Q 1413 1113 1716 903
L 1716 2847
L 441 2847
L 441 3316
L 1509 3316
L 1509 4109
L 588 4109
L 588 4575
L 1509 4575
L 1509 5269
L 1997 5269
L 1997 4575
L 2869 4575
L 2869 4109
L 1997 4109
L 1997 3316
L 3047 3316
L 3047 2847
L 2203 2847
L 2203 2100
L 2994 2100
L 2994 1631
L 2203 1631
L 2203 588
Q 2697 306 3231 306
L 6156 313
z
M 5741 4647
L 5375 4341
Q 5022 4722 4519 4897
L 4878 5228
Q 5278 5131 5741 4647
z
" transform="scale(0.015625)"/>
     <path id="ArialUnicodeMS-5927" d="M 5972 109
L 5625 -275
Q 4584 341 4046 1159
Q 3509 1978 3322 3250
Q 3088 1959 2520 1142
Q 1953 325 909 -244
L 544 197
Q 2403 1081 2809 3256
L 856 3256
L 856 3744
L 2853 3744
Q 2919 4313 2900 5356
L 3419 5281
Q 3434 4266 3384 3744
L 5684 3744
L 5684 3256
L 3803 3256
Q 4003 2125 4512 1389
Q 5022 653 5972 109
z
" transform="scale(0.015625)"/>
     <path id="ArialUnicodeMS-ff0c" d="M 3544 0
Q 3544 -397 3392 -606
Q 3241 -816 3019 -903
L 2866 -666
Q 3216 -516 3219 0
L 2903 0
L 2903 641
L 3544 641
L 3544 0
z
" transform="scale(0.015625)"/>
     <path id="ArialUnicodeMS-6162" d="M 5784 1772
L 2138 1772
L 2138 3003
L 1959 2913
Q 1903 3238 1638 3572
L 1638 -441
L 1178 -441
L 1178 5281
L 1638 5281
L 1638 3994
L 1813 4078
Q 2153 3706 2388 3163
L 2316 3128
L 5784 3128
L 5784 1772
z
M 5306 2241
L 5306 2663
L 4738 2663
L 4738 2241
L 5306 2241
z
M 4256 2241
L 4256 2663
L 3688 2663
L 3688 2241
L 4256 2241
z
M 3206 2241
L 3206 2663
L 2619 2663
L 2619 2241
L 3206 2241
z
M 5325 3316
L 2591 3316
L 2591 5038
L 5325 5038
L 5325 3316
z
M 4844 4378
L 4844 4569
L 3072 4569
L 3072 4378
L 4844 4378
z
M 4844 3738
L 4844 3938
L 3072 3938
L 3072 3738
L 4844 3738
z
M 1075 3922
Q 1038 3075 678 2444
L 244 2584
Q 647 3384 647 4078
L 1075 3922
z
M 6209 78
L 5931 -397
Q 4850 -303 4044 78
Q 3200 -306 1978 -441
L 1734 44
Q 2888 113 3519 366
Q 3009 700 2753 1113
L 2425 1113
L 2425 1581
L 5375 1581
L 5375 1159
Q 5022 638 4544 366
Q 5128 125 6209 78
z
M 4806 1113
L 3284 1113
Q 3538 831 4044 594
Q 4419 791 4806 1113
z
" transform="scale(0.015625)"/>
    </defs>
    <use xlink:href="#ArialUnicodeMS-6781"/>
    <use xlink:href="#ArialUnicodeMS-7aef" transform="translate(100 0)"/>
    <use xlink:href="#ArialUnicodeMS-53d8" transform="translate(200 0)"/>
    <use xlink:href="#ArialUnicodeMS-5316" transform="translate(300 0)"/>
    <use xlink:href="#ArialUnicodeMS-60c5" transform="translate(400 0)"/>
    <use xlink:href="#ArialUnicodeMS-666f" transform="translate(500 0)"/>
    <use xlink:href="#ArialUnicodeMS-20" transform="translate(600 0)"/>
    <use xlink:href="#ArialUnicodeMS-b7" transform="translate(627.783203 0)"/>
    <use xlink:href="#ArialUnicodeMS-20" transform="translate(655.566406 0)"/>
    <use xlink:href="#ArialUnicodeMS-3be" transform="translate(683.349609 0)"/>
    <use xlink:href="#ArialUnicodeMS-20" transform="translate(726.5625 0)"/>
    <use xlink:href="#ArialUnicodeMS-8d8a" transform="translate(754.345703 0)"/>
    <use xlink:href="#ArialUnicodeMS-5927" transform="translate(854.345703 0)"/>
    <use xlink:href="#ArialUnicodeMS-ff0c" transform="translate(954.345703 0)"/>
    <use xlink:href="#ArialUnicodeMS-5de5" transform="translate(1054.345703 0)"/>
    <use xlink:href="#ArialUnicodeMS-8d44" transform="translate(1154.345703 0)"/>
    <use xlink:href="#ArialUnicodeMS-8c03" transform="translate(1254.345703 0)"/>
    <use xlink:href="#ArialUnicodeMS-6574" transform="translate(1354.345703 0)"/>
    <use xlink:href="#ArialUnicodeMS-8d8a" transform="translate(1454.345703 0)"/>
    <use xlink:href="#ArialUnicodeMS-6162" transform="translate(1554.345703 0)"/>
   </g>
  </g>
 </g>
 <defs>
  <clipPath id="p0dae288772">
   <rect x="72.576" y="102.816" width="306.432" height="163.52"/>
  </clipPath>
  <clipPath id="pec82eb67e3">
   <rect x="72.576" y="380.8" width="306.432" height="163.52"/>
  </clipPath>
 </defs>
</svg>
