<svg xmlns="http://www.w3.org/2000/svg" width="1100" height="600" viewBox="0 0 1100 600" role="img" aria-labelledby="title"><title id="title">Table 7：静态与 agentic 设置的准确率</title><rect width="1100" height="600" rx="20" fill="#fffaf1"/><g font-family="PingFang SC,sans-serif" fill="#30281e"><text x="36" y="46" font-size="26" font-weight="600">同一模型切换到 agentic 设置后，准确率如何变化</text><text x="36" y="80" font-size="17">蓝色：Static　橙色：Qwen Code / Agentic　｜　单位：%</text><text x="36" y="125" font-size="17">OmniVideoBench</text><text x="36" y="148" font-size="15" fill="#78674d">Qwen3.8-Omni-Flash</text><rect x="360" y="108" width="494.52" height="19" rx="3" fill="#7799b8"/><text x="864.52" y="123" font-size="16">63.4</text><rect x="360" y="132" width="528.8399999999999" height="19" rx="3" fill="#c38226"/><text x="898.8399999999999" y="147" font-size="16">67.8</text><text x="36" y="191" font-size="17">Video-MME-v2</text><text x="36" y="214" font-size="15" fill="#78674d">Qwen3.8-Omni-Flash</text><rect x="360" y="174" width="507.0" height="19" rx="3" fill="#7799b8"/><text x="877.0" y="189" font-size="16">65</text><rect x="360" y="198" width="556.14" height="19" rx="3" fill="#c38226"/><text x="926.14" y="213" font-size="16">71.3</text><text x="36" y="257" font-size="17">LVOmniBench</text><text x="36" y="280" font-size="15" fill="#78674d">Qwen3.8-Omni-Flash</text><rect x="360" y="240" width="493.73999999999995" height="19" rx="3" fill="#7799b8"/><text x="863.74" y="255" font-size="16">63.3</text><rect x="360" y="264" width="574.0799999999999" height="19" rx="3" fill="#c38226"/><text x="944.0799999999999" y="279" font-size="16">73.6</text><text x="36" y="323" font-size="17">OmniVideoBench</text><text x="36" y="346" font-size="15" fill="#78674d">Gemini 3.8 Flash</text><rect x="360" y="306" width="508.56" height="19" rx="3" fill="#7799b8"/><text x="878.56" y="321" font-size="16">65.2</text><rect x="360" y="330" width="546.78" height="19" rx="3" fill="#c38226"/><text x="916.78" y="345" font-size="16">70.1</text><text x="36" y="389" font-size="17">Video-MME-v2</text><text x="36" y="412" font-size="15" fill="#78674d">Gemini 3.8 Flash</text><rect x="360" y="372" width="553.8" height="19" rx="3" fill="#7799b8"/><text x="923.8" y="387" font-size="16">71</text><rect x="360" y="396" width="567.0600000000001" height="19" rx="3" fill="#c38226"/><text x="937.0600000000001" y="411" font-size="16">72.7</text><text x="36" y="455" font-size="17">LVOmniBench</text><text x="36" y="478" font-size="15" fill="#78674d">Gemini 3.8 Flash</text><rect x="360" y="438" width="551.46" height="19" rx="3" fill="#7799b8"/><text x="921.46" y="453" font-size="16">70.7</text><rect x="360" y="462" width="551.46" height="19" rx="3" fill="#c38226"/><text x="921.46" y="477" font-size="16">70.7</text><text x="36" y="562" font-size="16" fill="#78674d">数据来源：原论文 Table 7，PDF 第 14 页。横轴从 0 起；跨模型差异还包含执行设置影响。</text></g></svg>